<svg width="130" height="33" viewBox="0 0 130 33" fill="none" xmlns="http://www.w3.org/2000/svg">
<g clip-path="url(#clip0_0_1)">
<path d="M16 3.66675C23.364 3.66675 29.3334 9.63608 29.3334 17.0001C29.3334 24.3641 23.364 30.3334 16 30.3334C8.63602 30.3334 2.66669 24.3641 2.66669 17.0001C2.66669 9.63608 8.63602 3.66675 16 3.66675ZM15.0574 12.2854L11.2854 16.0574C11.0354 16.3075 10.895 16.6465 10.895 17.0001C10.895 17.3536 11.0354 17.6927 11.2854 17.9427L15.0574 21.7147C15.3074 21.9647 15.6465 22.1051 16 22.1051C16.3536 22.1051 16.6926 21.9647 16.9427 21.7147L20.7147 17.9427C20.9646 17.6927 21.1051 17.3536 21.1051 17.0001C21.1051 16.6465 20.9646 16.3075 20.7147 16.0574L16.9427 12.2854C16.6926 12.0355 16.3536 11.895 16 11.895C15.6465 11.895 15.3074 12.0355 15.0574 12.2854Z" fill="#006E41"/>
</g>
<path d="M35.992 24.5L38.152 19.772H46.984L49.144 24.5H51.064L43.768 8.42H41.392L34.12 24.5H35.992ZM41.608 12.14L42.472 10.052H42.616L43.504 12.14L46.288 18.236H38.848L41.608 12.14ZM55.1637 24.5V14.108H59.9397V12.644H55.1637C55.0677 10.484 56.2437 9.764 58.4037 9.764H59.9397V8.42H58.6437C55.5717 8.42 53.6757 9.836 53.4837 12.644H51.5637V14.108H53.4597V24.5H55.1637ZM63.3237 24.5V18.068C63.3237 15.404 64.3797 13.892 66.7797 13.892C68.8437 13.892 69.6837 14.876 69.6837 16.892V17.804H71.3877V16.628C71.3877 14.42 70.1877 12.404 67.4517 12.404C64.9797 12.404 63.6357 13.988 63.2757 15.884H63.1557V12.644H61.6197V24.5H63.3237ZM75.0659 11.132V8.42H73.3619V11.132H75.0659ZM75.0659 24.5V12.644H73.3619V24.5H75.0659ZM83.5962 24.74C86.9082 24.74 89.5002 22.772 89.5002 19.916V19.724H87.8202V19.868C87.8202 21.98 86.2842 23.18 83.5722 23.18C80.4042 23.18 79.0362 21.476 79.0362 18.572C79.0362 15.668 80.4042 13.964 83.5722 13.964C86.2842 13.964 87.8202 15.164 87.8202 17.276V17.42H89.5002V17.228C89.5002 14.372 86.9082 12.404 83.5962 12.404C79.8042 12.404 77.3322 14.972 77.3322 18.572C77.3322 22.172 79.8042 24.74 83.5962 24.74ZM95.0718 24.74C97.8318 24.74 99.9198 23.492 100.616 21.308H100.736V24.5H102.272V17.084C102.272 14.468 100.736 12.404 97.1358 12.404C93.4878 12.404 91.4238 14.444 91.4238 16.94V17.036H93.1278V16.94C93.1278 14.852 94.4718 13.94 97.0158 13.94C99.6078 13.94 100.616 14.852 100.616 17.156V18.068L94.9758 18.692C92.7678 18.932 91.1598 19.772 91.1598 21.716C91.1598 23.636 92.7438 24.74 95.0718 24.74ZM92.8638 21.596C92.8638 20.372 93.7278 19.94 95.5038 19.772L100.616 19.196V19.292C100.616 22.148 98.3358 23.42 95.4558 23.42C93.6558 23.42 92.8638 22.796 92.8638 21.596ZM110.281 24.74C113.353 24.74 115.561 23.564 115.561 21.332C115.561 19.412 114.193 18.548 111.649 18.188L108.745 17.78C106.777 17.492 106.153 17.06 106.153 15.836C106.153 14.42 107.185 13.82 109.681 13.82C112.705 13.82 113.641 14.78 113.641 16.556V16.676H115.345V16.628C115.345 13.844 113.137 12.404 109.729 12.404C106.465 12.404 104.473 13.724 104.473 15.812C104.473 17.78 105.841 18.62 108.001 18.908L111.169 19.364C113.137 19.676 113.881 20.084 113.881 21.332C113.881 22.7 112.969 23.324 110.305 23.324C107.401 23.324 106.225 22.628 106.225 20.636V20.492H104.521V20.54C104.521 23.276 106.633 24.74 110.281 24.74ZM119.503 24.5V18.932C119.503 15.98 120.727 13.964 123.895 13.964C126.559 13.964 127.831 15.116 127.831 17.828V24.5H129.535V17.612C129.535 14.612 127.879 12.404 124.567 12.404C121.543 12.404 120.007 14.276 119.623 16.268H119.503V8.42H117.799V24.5H119.503Z" fill="black" fill-opacity="0.87"/>
<defs>
<clipPath id="clip0_0_1">
<rect width="32" height="32" fill="white" transform="translate(0 0.5)"/>
</clipPath>
</defs>
</svg>
